<?xml version="1.0" encoding="UTF-8"?>
<svg xmlns="http://www.w3.org/2000/svg" width="256" height="256" viewBox="0 0 256 256">
  <defs>
    <linearGradient id="area" x1="0" y1="0" x2="0" y2="1">
      <stop offset="0" stop-color="#66ff99" stop-opacity="0.85"/>
      <stop offset="1" stop-color="#66ff99" stop-opacity="0.04"/>
    </linearGradient>
    <linearGradient id="area2" x1="0" y1="0" x2="0" y2="1">
      <stop offset="0" stop-color="#66ccff" stop-opacity="0.55"/>
      <stop offset="1" stop-color="#66ccff" stop-opacity="0.03"/>
    </linearGradient>
  </defs>

  <!-- panel -->
  <rect x="8" y="8" width="240" height="240" rx="44" fill="#14141b"/>
  <rect x="8.5" y="8.5" width="239" height="239" rx="43.5" fill="none" stroke="#2a2a38" stroke-width="3"/>

  <!-- baseline grid -->
  <g stroke="#2a2a38" stroke-width="2">
    <line x1="40" y1="92" x2="216" y2="92"/>
    <line x1="40" y1="140" x2="216" y2="140"/>
    <line x1="40" y1="188" x2="216" y2="188"/>
  </g>

  <!-- back series (cyan) -->
  <path fill="url(#area2)" d="M40 188 L40 150 L70 132 L100 158 L130 120 L160 142 L190 110 L216 130 L216 188 Z"/>
  <path fill="none" stroke="#66ccff" stroke-width="6" stroke-linejoin="round" stroke-linecap="round"
        d="M40 150 L70 132 L100 158 L130 120 L160 142 L190 110 L216 130"/>

  <!-- front series (green, spiky) -->
  <path fill="url(#area)" d="M40 188 L40 168 L66 150 L92 172 L118 96 L144 150 L170 128 L196 160 L216 140 L216 188 Z"/>
  <path fill="none" stroke="#66ff99" stroke-width="9" stroke-linejoin="round" stroke-linecap="round"
        d="M40 168 L66 150 L92 172 L118 96 L144 150 L170 128 L196 160 L216 140"/>
</svg>
